<?xml version="1.0" standalone="no"?>
<!DOCTYPE svg PUBLIC "-//W3C//DTD SVG 20010904//EN"
 "http://www.w3.org/TR/2001/REC-SVG-20010904/DTD/svg10.dtd">
<svg version="1.0" xmlns="http://www.w3.org/2000/svg"
 width="350.000000pt" height="400.000000pt" viewBox="0 0 350.000000 400.000000"
 preserveAspectRatio="xMidYMid meet">

<g transform="translate(0.000000,400.000000) scale(0.100000,-0.100000)"
fill="#000000" stroke="none">
<path d="M859 3117 l-846 -872 451 -5 451 -5 -4 -275 c-1 -151 -6 -459 -11
-685 -4 -225 -5 -413 -1 -418 4 -4 389 -6 857 -5 l849 3 3 683 2 682 443 0
442 0 -885 885 c-487 487 -889 885 -895 884 -5 0 -391 -393 -856 -872z m1546
-47 l680 -680 -323 0 -322 0 0 -685 0 -685 -687 0 -686 0 7 497 c3 274 9 585
13 691 l6 192 -299 2 c-259 2 -333 3 -378 7 -6 1 69 81 166 179 96 97 390 399
653 670 263 270 481 492 484 492 3 0 312 -306 686 -680z"/>
<path d="M900 345 l0 -345 860 0 860 0 0 345 0 345 -860 0 -860 0 0 -345z
m1550 0 l0 -175 -690 0 -690 0 0 175 0 175 690 0 690 0 0 -175z"/>
</g>
</svg>
