<?xml version="1.0" standalone="no"?>
<!DOCTYPE svg PUBLIC "-//W3C//DTD SVG 20010904//EN"
 "http://www.w3.org/TR/2001/REC-SVG-20010904/DTD/svg10.dtd">
<svg version="1.0" xmlns="http://www.w3.org/2000/svg"
 width="512.000000pt" height="512.000000pt" viewBox="0 0 512.000000 512.000000"
 preserveAspectRatio="xMidYMid meet">

<g transform="translate(0.000000,512.000000) scale(0.100000,-0.100000)"
fill="#000000" stroke="none">
<path d="M2513 4683 c-18 -7 -1834 -1929 -1857 -1965 -24 -37 -16 -93 19 -127
l25 -26 505 -3 505 -3 0 -1035 0 -1036 29 -29 29 -29 792 0 792 0 29 29 29 29
0 1036 0 1035 506 3 506 3 29 33 c31 35 38 77 18 115 -17 30 -1845 1963 -1864
1971 -19 7 -74 7 -92 -1z m832 -1083 l780 -825 -430 -5 c-237 -3 -437 -9 -446
-13 -8 -4 -23 -21 -32 -36 -16 -27 -17 -108 -17 -1055 l0 -1026 -640 0 -640 0
0 1026 c0 947 -1 1028 -17 1055 -9 15 -24 32 -32 36 -9 4 -209 10 -446 13
l-429 5 779 827 c429 454 783 826 786 825 3 -1 356 -373 784 -827z"/>
</g>
</svg>
