<?xml version="1.0" standalone="no"?>
<!DOCTYPE svg PUBLIC "-//W3C//DTD SVG 20010904//EN"
 "http://www.w3.org/TR/2001/REC-SVG-20010904/DTD/svg10.dtd">
<svg version="1.0" xmlns="http://www.w3.org/2000/svg"
 width="512.000000pt" height="512.000000pt" viewBox="0 0 512.000000 512.000000"
 preserveAspectRatio="xMidYMid meet">

<g transform="translate(0.000000,512.000000) scale(0.100000,-0.100000)"
fill="#000000" stroke="none">
<path d="M810 4946 c-340 -73 -585 -328 -640 -669 -59 -364 163 -739 512 -865
122 -44 198 -52 492 -52 l266 0 0 -800 0 -800 -266 0 c-146 0 -298 -5 -337
-11 -221 -34 -423 -166 -547 -356 -89 -136 -125 -259 -125 -433 0 -174 36
-297 124 -432 243 -371 737 -478 1104 -238 190 124 322 326 356 547 6 39 11
191 11 337 l0 266 800 0 800 0 0 -266 c0 -294 8 -370 52 -492 172 -475 757
-669 1181 -392 217 141 347 366 364 626 23 360 -204 689 -557 806 l-95 32
-312 4 -313 4 0 798 0 798 308 4 c322 5 338 7 474 58 32 12 91 43 131 70 370
241 477 737 238 1102 -240 367 -718 476 -1088 248 -194 -119 -325 -310 -369
-538 -10 -53 -14 -153 -14 -348 l0 -274 -800 0 -800 0 0 266 c0 294 -8 370
-52 492 -89 245 -291 426 -558 499 -78 21 -260 26 -340 9z m265 -321 c172 -45
305 -179 350 -352 12 -44 15 -120 15 -325 l0 -268 -259 0 c-142 0 -282 5 -312
10 -176 34 -327 177 -374 355 -89 343 237 669 580 580z m3200 0 c172 -45 305
-179 350 -352 65 -249 -94 -511 -350 -578 -46 -12 -119 -15 -327 -15 l-268 0
0 268 c0 205 3 281 15 325 67 258 329 417 580 352z m-915 -2065 l0 -800 -800
0 -800 0 0 800 0 800 800 0 800 0 0 -800z m-1920 -1388 c0 -205 -3 -281 -15
-325 -45 -173 -178 -307 -350 -352 -251 -65 -513 94 -580 350 -64 248 93 511
346 579 41 11 122 15 327 15 l272 1 0 -268z m2833 253 c173 -45 307 -178 352
-350 83 -322 -199 -636 -529 -588 -194 28 -351 168 -401 358 -12 46 -15 119
-15 327 l0 268 268 0 c205 0 281 -3 325 -15z"/>
</g>
</svg>
