<?xml version="1.0" standalone="no"?>
<!DOCTYPE svg PUBLIC "-//W3C//DTD SVG 20010904//EN"
 "http://www.w3.org/TR/2001/REC-SVG-20010904/DTD/svg10.dtd">
<svg version="1.0" xmlns="http://www.w3.org/2000/svg"
 width="512.000000pt" height="512.000000pt" viewBox="0 0 512.000000 512.000000"
 preserveAspectRatio="xMidYMid meet">

<g transform="translate(0.000000,512.000000) scale(0.100000,-0.100000)"
fill="#000000" stroke="none">
<path d="M2930 4205 l0 -185 839 0 c569 0 849 -3 868 -11 34 -13 80 -55 99
-91 12 -23 14 -155 14 -808 0 -758 -1 -782 -20 -820 -24 -47 -63 -76 -121 -89
-52 -12 -3899 -15 -3899 -4 0 5 186 194 412 420 l413 413 -130 130 -130 130
-638 -638 -637 -637 640 -640 640 -640 127 128 128 127 -420 420 -420 420
1970 0 c2183 0 2032 -4 2166 66 134 70 251 231 278 378 7 39 11 327 11 841 0
746 -1 785 -20 859 -11 43 -32 101 -47 129 -42 79 -156 188 -236 226 -128 61
-119 61 -1044 61 l-843 0 0 -185z"/>
</g>
</svg>
