<?xml version="1.0" standalone="no"?>
<!DOCTYPE svg PUBLIC "-//W3C//DTD SVG 20010904//EN"
 "http://www.w3.org/TR/2001/REC-SVG-20010904/DTD/svg10.dtd">
<svg version="1.0" xmlns="http://www.w3.org/2000/svg"
 width="67.000000pt" height="67.000000pt" viewBox="0 0 67.000000 67.000000"
 preserveAspectRatio="xMidYMid meet">

<g transform="translate(0.000000,67.000000) scale(0.100000,-0.100000)"
fill="#000000" stroke="none">
<path d="M30 640 c-19 -19 -20 -33 -20 -303 0 -229 3 -287 14 -303 14 -18 31
-19 300 -22 l286 -3 25 26 26 25 -3 286 c-3 269 -4 286 -22 300 -16 11 -74 14
-303 14 -270 0 -284 -1 -303 -20z m586 -14 c18 -14 19 -29 19 -290 0 -212 -3
-278 -13 -288 -10 -10 -76 -13 -288 -13 -261 0 -276 1 -290 19 -11 16 -14 71
-14 283 0 250 1 264 20 283 19 19 33 20 283 20 212 0 267 -3 283 -14z"/>
<path d="M262 428 c-7 -7 -12 -19 -12 -28 0 -9 -5 -21 -11 -27 -8 -8 -8 -13 0
-17 6 -4 11 -34 11 -67 0 -33 4 -59 10 -59 6 0 10 27 10 60 0 45 4 62 15 66
14 6 14 8 0 18 -19 13 -10 46 11 46 8 0 14 5 14 10 0 14 -33 13 -48 -2z"/>
<path d="M371 371 c-8 -5 -20 -7 -28 -4 -10 4 -13 -11 -13 -66 0 -41 4 -71 10
-71 6 0 10 25 10 55 0 42 4 56 18 64 34 18 52 -5 52 -64 0 -30 5 -55 10 -55 6
0 10 28 10 65 0 53 -3 66 -19 75 -24 12 -32 12 -50 1z"/>
</g>
</svg>
