<?xml version="1.0" standalone="no"?>
<!DOCTYPE svg PUBLIC "-//W3C//DTD SVG 20010904//EN"
 "http://www.w3.org/TR/2001/REC-SVG-20010904/DTD/svg10.dtd">
<svg version="1.0" xmlns="http://www.w3.org/2000/svg"
 width="512.000000pt" height="512.000000pt" viewBox="0 0 512.000000 512.000000"
 preserveAspectRatio="xMidYMid meet">

<g transform="translate(0.000000,512.000000) scale(0.100000,-0.100000)"
fill="#000000" stroke="none">
<path d="M2626 3691 l-150 -150 379 -383 379 -383 -1512 -3 -1512 -2 0 -210 0
-210 1512 0 1513 0 -383 -383 -382 -382 153 -153 152 -152 640 640 640 640
-640 640 -640 640 -149 -149z"/>
<path d="M4270 2560 l0 -1280 210 0 210 0 0 1280 0 1280 -210 0 -210 0 0
-1280z"/>
</g>
</svg>
